<?xml version="1.0" encoding="UTF-8"?><svg id="Layer_2" xmlns="http://www.w3.org/2000/svg" viewBox="0 0 363.67 67.78"><defs><style>.cls-1,.cls-2{fill:none;}.cls-3{fill:#ec2032;}.cls-4{fill:#fff;}.cls-5{fill:#cfd1d2;}.cls-6{fill:#1b2540;}.cls-2{stroke:#cfd1d2;stroke-linecap:round;stroke-linejoin:round;stroke-width:0px;}</style></defs><g id="Layer_1-2"><g id="NEXbmg.tif"><path class="cls-6" d="m118.14,30.42c3.35,1.59,5.45,4.77,5.45,8.65,0,5.76-4.97,10.13-11.54,10.13h-16.39V13.63h16.07c6.31,0,10.91,3.85,10.91,9.1,0,3.18-1.78,6.04-4.5,7.68h0Zm-4.24,7.49c0-1.89-1.39-3.22-3.51-3.22h-5.32v6.47h5.32c2.12,0,3.51-1.33,3.51-3.25Zm-.57-13.55c0-1.85-1.26-3.1-3.31-3.1h-4.95v6.19h4.95c2.05,0,3.31-1.25,3.31-3.1h0Z"/><path class="cls-6" d="m126.68,35.48c0-8.51,6.44-14.62,15.38-14.62s15.38,6.11,15.38,14.62-6.47,14.62-15.38,14.62-15.38-6.14-15.38-14.62Zm15.38,6.13c3.45,0,5.92-2.5,5.92-6.13s-2.47-6.13-5.92-6.13-5.92,2.5-5.92,6.13,2.47,6.13,5.92,6.13h0Z"/><path class="cls-6" d="m160.22,35.48c0-8.51,6.44-14.62,15.38-14.62s15.38,6.11,15.38,14.62-6.47,14.62-15.38,14.62-15.38-6.14-15.38-14.62Zm15.38,6.13c3.45,0,5.92-2.5,5.92-6.13s-2.47-6.13-5.92-6.13-5.92,2.5-5.92,6.13,2.47,6.13,5.92,6.13h0Z"/><path class="cls-6" d="m205.95,50.1c-7.48,0-12.02-3.95-12.11-9.89h9.1c0,2.01,1.4,2.93,3.19,2.93,1.38,0,2.69-.71,2.69-2.12,0-1.58-2.08-2.03-4.71-2.47-4.25-.69-9.89-1.97-9.89-8.63,0-5.5,4.69-9.05,11.72-9.05s11.52,3.72,11.62,9.28h-8.85c0-1.75-1.18-2.57-2.89-2.57-1.52,0-2.53.75-2.53,2.02,0,1.56,2.1,1.92,4.71,2.39,4.33.77,10.1,1.67,10.1,8.63,0,5.73-4.84,9.49-12.13,9.49h0Z"/><path class="cls-6" d="m240.75,40.92v8.28h-6.5c-6.07,0-9.76-3.71-9.76-9.81v-10.35h-5.02v-2.21l12.29-13.09h1.94v8.02h6.89v7.28h-6.66v8.73c0,1.96,1.19,3.15,3.18,3.15h3.63Z"/><path class="cls-6" d="m258.48,50.1c-8.8,0-15.15-6.17-15.15-14.66s6.32-14.54,15.18-14.54c7.71,0,13.5,4.86,14.53,12.16h-9.21c-.79-2.24-2.89-3.69-5.35-3.69-3.32,0-5.68,2.52-5.68,6.1s2.39,6.16,5.68,6.16c2.54,0,4.59-1.55,5.37-4h9.29c-1.07,7.45-6.93,12.47-14.66,12.47h0Z"/><path class="cls-6" d="m304.35,32.68v16.52h-9.45v-15.42c0-3.16-1.11-4.78-3.58-4.78-2.86,0-4.64,2.03-4.64,5.55v14.65h-9.45V11.85h9.45v11.71c2.02-1.63,4.59-2.62,7.32-2.62,6.3,0,10.35,4.61,10.35,11.73Z"/><path class="cls-6" d="m339.21,21.73v27.44h-7.31l-.81-1.94c-2.25,1.82-5.09,2.87-8.28,2.87-8.39,0-14.39-6.12-14.39-14.65s6-14.55,14.39-14.55c3.23,0,6.12,1.08,8.38,2.95l.97-2.12h7.04Zm-8.99,13.74c0-3.56-2.6-6.24-6.14-6.24s-6.14,2.67-6.14,6.24,2.6,6.26,6.14,6.26,6.14-2.67,6.14-6.26Z"/><path class="cls-6" d="m363.67,40.92v8.28h-6.5c-6.07,0-9.76-3.71-9.76-9.81v-10.35h-5.02v-2.21l12.29-13.09h1.94v8.02h6.89v7.28h-6.66v8.73c0,1.96,1.19,3.15,3.18,3.15h3.63Z"/><path class="cls-1" d="m12.74,44.2c.11.08.22.18.32.29-.09-.1-.2-.2-.32-.29Z"/><path class="cls-1" d="m56.63,37.78c-.57,0-1.11-.12-1.61-.31.58.31,1.19.47,1.8.41,2.41.08,4.22-2.03,4.4-4.12.05-.59-.06-1.17-.28-1.71.11.39.19.8.19,1.23,0,2.49-2.01,4.5-4.5,4.5Z"/><path class="cls-1" d="m41.14,37.88c.41.02.81-.06,1.2-.17-.23.04-.47.07-.71.07-2.49,0-4.5-2.01-4.5-4.5,0-1.43.68-2.69,1.72-3.52-1.18.8-2.04,2.18-2.06,3.55-.02,2.22,2.09,4.66,4.34,4.57Z"/><path class="cls-1" d="m10.73,44.2c-.07-.08-.13-.16-.19-.24.06.08.12.16.19.24Z"/><path class="cls-1" d="m73.61,35.36c-.08.66-.12,1.32-.23,1.99.11-.67.15-1.33.23-1.99Z"/><path class="cls-1" d="m25.63,37.78c-1.02,0-1.96-.36-2.71-.93.65.64,1.41,1.07,2.14,1.1,2.64.1,4.95-1.72,5.01-4.1-.28,2.22-2.15,3.93-4.44,3.93Z"/><path class="cls-3" d="m79.15,31.91c-.13-.81-.12-1.65-.36-2.42-.5-1.59-1.03-3.19-1.74-4.69-.59-1.24-1.42-2.38-2.21-3.52-1.79-2.6-4.18-4.58-6.75-6.36-3.46-2.4-7.22-4.22-11.25-5.41-2.38-.7-4.81-1.25-7.23-1.78-1.28-.28-2.59-.38-3.89-.54-.92-.11-1.85-.22-2.78-.26-1.1-.04-2.2-.01-3.3-.01-.64,0-1.28-.04-1.91.02-1.23.1-2.45.25-3.67.38-.6.07-1.19.18-1.79.22-.99.07-1.97.17-2.85-.53-1.2-.95-2.42-1.88-3.71-2.71-2.08-1.33-4.29-2.42-6.72-2.98-2-.46-4.01-.98-6.04-1.23-2.32-.28-4.65.09-6.92.56-1.88.39-3.7,1.09-5.54,1.68-.62.2-.64.43-.15.91,1.16,1.15,2.35,2.27,3.46,3.48.74.81,1.42,1.69,1.99,2.62,1.15,1.88,2.1,3.87,2.35,6.1.14,1.26.16,2.5-.78,3.57-.79.89-1.5,1.84-2.21,2.79-1.64,2.2-2.79,4.63-3.44,7.31-.54,2.23-.83,4.46-.51,6.74.11.73.32,1.44.52,2.16.2.75.41,1.5.67,2.23.27.78.54,1.58.93,2.31,1.01,1.88,2.23,3.62,3.6,5.25.62.74,1.24,1.54,1.28,2.62.07,1.9-.3,3.71-1.16,5.38-.6,1.16-1.31,2.26-2.02,3.35-.46.7-.94,1.4-1.51,2.02-.98,1.06-2.02,2.08-3.08,3.07-.45.42-.3.72.14.86,0,0,3.25,1.67,12.61,2.06,1.59-.07,3.38-.36,4.45-.6,2.19-.51,4.32-1.26,6.27-2.36,1.69-.96,3.25-2.14,4.88-3.21.73-.48,1.31-1.27,2.37-1.11,1.4.21,2.81.39,4.23.52,1.44.13,2.88.27,4.32.26,1.94-.01,3.88-.12,5.81-.26,1.11-.08,2.23-.26,3.32-.48,1.38-.27,2.73-.71,4.12-.93,2.49-.39,4.81-1.31,7.15-2.19.9-.34,1.76-.81,2.63-1.24,1.23-.61,2.49-1.17,3.65-1.89,1.94-1.2,3.78-2.53,5.43-4.14,1.19-1.16,2.42-2.28,3.38-3.66,1.17-1.69,2.28-3.41,2.8-5.43.35-1.34.69-2.69,1.04-4.03.37-1.43.12-4.51.12-4.51Zm-5.77,5.44c-.05.31-.12.61-.21.92-.33,1.07-.86,2.03-1.38,2.95-.71,1.24-1.69,2.34-2.66,3.41-2.03,2.24-4.46,3.98-7.13,5.4-1.8.96-3.59,1.95-5.57,2.49-2.15.59-4.28,1.31-6.46,1.78-1.64.35-3.34.46-5.02.56-2.23.14-4.48.27-6.71.24-1.57-.02-3.14-.32-4.71-.48-.54-.06-1.08-.07-1.62-.15-.83-.13-1.65-.28-2.47-.45-.63-.13-1.1-.08-1.6.49-.99,1.14-2.04,2.27-3.22,3.2-1.86,1.46-3.84,2.73-6.06,3.65-1.67.69-3.37,1.21-5.14,1.38-1.4.13-2.84-.03-4.25-.1-.4-.02-.54-.44-.27-.77.39-.47.82-.9,1.23-1.35.49-.65,1.02-1.28,1.45-1.96.42-.66.75-1.39,1.11-2.08.57-1.1.83-2.31,1.17-3.49.48-1.67.32-3.36.37-5.04,0-.16-.02-.3-.07-.42-1.09-.73-2.44-2.09-3.44-3.33-.06-.08-.13-.16-.19-.24-.23-.3-.45-.59-.63-.85-.76-1.14-1.36-2.39-2.02-3.59-.09-.16-.08-.37-.12-.56-1.09-1.81-1.36-3.82-1.28-5.87.03-.88.29-1.77.51-2.63.24-.92.42-1.89.88-2.7.75-1.32,1.67-2.54,2.56-3.77.45-.63.97-1.22,1.51-1.78,1.84-1.86,3.95-3.41,6.25-4.64,1.59-.85,3.26-1.59,4.93-2.28,1.22-.51,2.5-.88,3.77-1.28.81-.26,1.62-.54,2.45-.69.74-.14,1.52-.39,2.27-.48,1.33-.15,2.65-.05,3.97-.22.07,0,.13,0,.2,0,1.13-.04,2.27-.14,3.4-.12,2.65.05,5.3.13,7.94.48,3.22.43,6.36,1.12,9.45,2.13,3.27,1.08,6.23,2.69,9.02,4.71,2.28,1.65,4.27,3.57,5.85,5.89,1.17,1.72,1.97,3.61,2.14,5.71.08,1.06.08,2.14.12,3.2-.05.25-.08.51-.11.76-.08.66-.12,1.32-.23,1.99Z"/><path class="cls-2" d="m79.12,36.3s-.06.08-.1.12"/><path class="cls-4" d="m11.34,60.66c2.29-.21,4.54-.56,6.67-1.55,2.6-1.21,4.97-2.73,7.05-4.7.81-.77,1.62-1.54,2.37-2.37.42-.47.89-.56,1.42-.43,2.17.55,4.39.77,6.61.9,1.66.1,3.32.28,4.98.23,2.28-.06,4.55-.3,6.82-.48,2.05-.16,4.01-.77,6-1.25,2.58-.62,5.01-1.59,7.36-2.73,3.4-1.64,6.47-3.77,8.98-6.62,1.18-1.33,2.22-2.76,2.92-4.41.29-.7.45-1.45.72-2.16.07-.2.31-.34.48-.5-.04-1.07-.04-2.14-.12-3.2-.16-2.1-.96-3.99-2.14-5.71-1.58-2.32-3.57-4.24-5.85-5.89-2.78-2.02-5.75-3.63-9.02-4.71-3.08-1.01-6.22-1.7-9.45-2.13-2.64-.35-5.29-.43-7.94-.48-1.13-.02-2.27.08-3.4.12-.07,0-.13,0-.2,0-1.32.17-2.64.07-3.97.22-.76.09-1.53.34-2.27.48-.83.16-1.64.43-2.45.69-1.26.41-2.55.78-3.77,1.28-1.67.69-3.33,1.43-4.93,2.28-2.31,1.23-4.41,2.77-6.25,4.64-.55.55-1.06,1.15-1.51,1.78-.89,1.23-1.82,2.45-2.56,3.77-.46.81-.64,1.78-.88,2.7-.23.87-.48,1.75-.51,2.63-.08,2.05.19,4.06,1.28,5.87.62.7,1.23,1.39,1.85,2.09.09.1.15.21.24.31.44.48.87.98,1.33,1.44.5.49.99,1,1.55,1.41.13.09.23.19.32.29.74.78,1.26,2.21,1.11,3.04,0,0,0,0,0,0,.05.13.08.27.07.42-.04,1.68.11,3.37-.37,5.04-.34,1.19-.6,2.39-1.17,3.49-.36.7-.69,1.42-1.11,2.08-.43.69-.96,1.31-1.45,1.96.4.05.81.17,1.2.13Zm45.29-31.88c2.05,0,3.77,1.39,4.31,3.27.23.54.34,1.13.28,1.71-.18,2.09-1.99,4.2-4.4,4.12-.61.06-1.23-.1-1.8-.41-1.69-.65-2.89-2.27-2.89-4.19,0-2.49,2.01-4.5,4.5-4.5Zm-17.78.98c.77-.61,1.72-.98,2.78-.98,2.49,0,4.5,2.01,4.5,4.5,0,2.24-1.64,4.09-3.79,4.43-.39.11-.79.19-1.2.17-2.25.1-4.36-2.34-4.34-4.57.01-1.38.87-2.75,2.06-3.55Zm-13.22-.98c2.49,0,4.5,2.01,4.5,4.5,0,.19-.03.38-.06.57-.06,2.38-2.37,4.2-5.01,4.1-.73-.03-1.49-.46-2.14-1.1-1.08-.82-1.79-2.11-1.79-3.57,0-2.49,2.01-4.5,4.5-4.5Z"/><path class="cls-5" d="m73.24,35.1c-.27.71-.42,1.46-.72,2.16-.69,1.65-1.74,3.08-2.92,4.41-2.52,2.85-5.59,4.98-8.98,6.62-2.36,1.14-4.78,2.1-7.36,2.73-1.99.48-3.95,1.09-6,1.25-2.27.18-4.55.42-6.82.48-1.66.05-3.32-.14-4.98-.23-2.23-.13-4.44-.34-6.61-.9-.52-.13-1-.04-1.42.43-.74.83-1.56,1.6-2.37,2.37-2.08,1.97-4.46,3.49-7.05,4.7-2.12.99-4.38,1.34-6.67,1.55-.39.04-.8-.08-1.2-.13-.41.45-.84.88-1.23,1.35-.27.33-.13.75.27.77,1.42.07,2.85.24,4.25.1,1.77-.17,3.47-.69,5.14-1.38,2.22-.92,4.2-2.19,6.06-3.65,1.18-.93,2.22-2.06,3.22-3.2.49-.57.96-.62,1.6-.49.82.17,1.64.33,2.47.45.54.08,1.08.09,1.62.15,1.57.17,3.14.46,4.71.48,2.24.03,4.48-.1,6.71-.24,1.68-.11,3.38-.21,5.02-.56,2.18-.47,4.31-1.19,6.46-1.78,1.99-.55,3.77-1.53,5.57-2.49,2.67-1.43,5.09-3.16,7.13-5.4.97-1.07,1.95-2.17,2.66-3.41.52-.92,1.05-1.88,1.38-2.95.1-.31.16-.61.21-.92.11-.67.15-1.33.23-1.99.03-.25.06-.51.11-.76-.16.17-.4.3-.48.5Z"/><path class="cls-5" d="m13.06,44.49c-.1-.11-.21-.21-.32-.29-.56-.41-1.06-.92-1.55-1.41-.46-.46-.89-.96-1.33-1.44-.09-.1-.16-.21-.24-.31-.62-.7-1.23-1.39-1.85-2.09.04.19.03.4.12.56.66,1.21,1.26,2.45,2.02,3.59.18.26.39.56.63.85.06.08.12.16.19.24,1,1.23,2.36,2.6,3.44,3.33,0,0,0,0,0,0,.14-.83-.37-2.25-1.11-3.04Z"/><path class="cls-3" d="m22.92,36.85c.76.58,1.69.93,2.71.93,2.29,0,4.16-1.72,4.44-3.93.02-.19.06-.37.06-.57,0-2.49-2.01-4.5-4.5-4.5s-4.5,2.01-4.5,4.5c0,1.46.71,2.75,1.79,3.57Z"/><path class="cls-3" d="m37.13,33.28c0,2.49,2.01,4.5,4.5,4.5.24,0,.48-.03.71-.07,2.15-.34,3.79-2.19,3.79-4.43,0-2.49-2.01-4.5-4.5-4.5-1.05,0-2.01.38-2.78.98-1.04.82-1.72,2.08-1.72,3.52Z"/><path class="cls-3" d="m55.02,37.47c.5.19,1.04.31,1.61.31,2.49,0,4.5-2.01,4.5-4.5,0-.43-.08-.84-.19-1.23-.54-1.88-2.25-3.27-4.31-3.27-2.49,0-4.5,2.01-4.5,4.5,0,1.92,1.2,3.54,2.89,4.19Z"/></g></g></svg>